<svg width="42" height="42" viewBox="0 0 42 42" fill="none" xmlns="http://www.w3.org/2000/svg">
<path fill-rule="evenodd" clip-rule="evenodd" d="M30.2555 21.6603C31.0806 20.4922 31.5653 19.0665 31.5653 17.5276C31.5653 13.5668 28.3545 10.356 24.3937 10.356C21.8782 10.356 19.6652 11.6511 18.3851 13.6109C17.4992 13.4033 16.5756 13.2936 15.6264 13.2936L15.6152 13.2936C17.1908 10.0329 20.5296 7.78363 24.3937 7.78363C29.7751 7.78363 34.1377 12.1461 34.1377 17.5276C34.1377 19.2713 33.6796 20.908 32.8774 22.324C32.0664 21.9612 31.1833 21.7308 30.2555 21.6603Z" fill="white"/>
<path fill-rule="evenodd" clip-rule="evenodd" d="M16.8307 38.922C16.7464 38.9236 16.6618 38.9244 16.5772 38.9244C9.11868 38.9244 3.07239 32.6621 3.07239 24.9373C3.07239 17.2124 9.11868 10.9502 16.5772 10.9502C22.4689 10.9502 27.4794 14.8578 29.3245 20.3073C29.5741 20.2858 29.8266 20.2748 30.0816 20.2748C35.0539 20.2748 39.0848 24.4496 39.0848 29.5995C39.0848 34.6417 35.2208 38.7492 30.3924 38.9188V38.9243L16.8307 38.9243V38.922ZM16.8307 36.3523H16.6299V36.3519L16.5772 36.352C10.6237 36.352 5.64473 31.3273 5.64473 24.9373C5.64473 18.5473 10.6237 13.5225 16.5772 13.5225C21.2038 13.5225 25.2418 16.5571 26.812 20.9088L26.8088 20.91C27.104 21.7177 27.313 22.5692 27.424 23.4526C28.2404 23.0626 29.1425 22.8471 30.0816 22.8471C33.5489 22.8471 36.5125 25.7845 36.5125 29.5995C36.5125 33.4146 33.5489 36.3519 30.0816 36.3519H30.0784V36.352L16.8307 36.352V36.3523Z" fill="white"/>
</svg>
